# xmcd CD database file
#
# Track frame offsets:
#	150
#	1358
#	14544
#	30342
#	42634
#	57517
#	73385
#	90182
#	102607
#	116641
#	132231
#	146198
#	159166
#	172194
#	185074
#	198020
#	210102
#	227749
#	249611
#
# Disc length: 3613 seconds
#
# Revision: 0
# Processed by: cddbd v1.5.2PL0 Copyright (c) Steve Scherf et al.
# Submitted via: Feurio! 1.68 - http://www.feurio.com
#
DISCID=0d0e1b13
DTITLE=Various Artist - Bo:Tastic - 2007/I
DYEAR=2007
DGENRE=Aerobic - Tae Bo
TTITLE0=Move Ya! - Intro
TTITLE1=Murphy Brown - Axel F.
TTITLE2=Alex Butcher - Sweet Dreams
TTITLE3=Interactive - Forever Young
TTITLE4=Base Unique - Voyage Voyage
TTITLE5=Nightrace - The Neverending Story
TTITLE6=Resource - (I Just) Died In Your Arms
TTITLE7=Pure Pressure - Wouldn't It Be Good
TTITLE8=Avalon - Feels Like Heaven
TTITLE9=Task Force vs. DJ Steve L - Without You
TTITLE10=DJ Matt Waxx - Hold Me Now
TTITLE11=Gavin and Nox - Gold
TTITLE12=2 DJ's and One - I Engineer
TTITLE13=Nouky - When The Rain Begins To Fall
TTITLE14=DJs@Work - Time To Wonder
TTITLE15=Andre Visior - Don't Go
TTITLE16=A Seven - Holding Out For A Hero
TTITLE17=DJK - I Like Chopin (Rainy Dayz)
TTITLE18=Ricardo Eberspacher - Take My Breath Away
EXTD=Spring 2007\r\nCardio: 57:29\r\n160 - 166 BPM
EXTT0=
EXTT1=160
EXTT2=160
EXTT3=160
EXTT4=160
EXTT5=161
EXTT6=161
EXTT7=162
EXTT8=162
EXTT9=163
EXTT10=163
EXTT11=164
EXTT12=164
EXTT13=165
EXTT14=165
EXTT15=166
EXTT16=166
EXTT17=120
EXTT18=Stretching
PLAYORDER=
